<svg width="1000" height="360" viewBox="0 0 1000 360" xmlns="http://www.w3.org/2000/svg" aria-hidden="true">
  <g fill="#53615c" fill-opacity="0.11">
    <path d="M86 70 122 48 166 45 210 58 240 82 230 112 194 119 171 145 146 147 121 128 96 136 70 118 54 90Z"/>
    <path d="M52 122 88 134 112 160 105 190 73 181 45 153Z"/>
    <path d="M149 145 178 162 188 198 178 234 160 274 132 254 124 216 104 189 115 160Z"/>
    <path d="M208 124 245 125 263 146 244 165 216 155Z"/>
    <path d="M286 64 313 53 346 59 358 83 337 101 302 95Z"/>
    <path d="M337 94 373 95 405 123 399 163 381 214 350 255 319 235 327 190 305 156 313 120Z"/>
    <path d="M405 101 445 76 503 64 572 73 632 90 681 117 728 134 792 148 832 178 816 210 755 203 708 185 653 192 598 169 556 187 496 175 457 146 424 142Z"/>
    <path d="M574 85 604 52 661 44 712 55 751 82 736 109 688 106 641 94 603 100Z"/>
    <path d="M704 145 760 133 823 151 879 188 914 226 880 243 821 223 770 224 724 199Z"/>
    <path d="M826 118 872 91 924 91 960 112 939 143 889 149Z"/>
    <path d="M807 261 847 251 890 268 878 300 826 305Z"/>
    <path d="M520 229 556 244 569 286 540 315 503 294 489 255Z"/>
    <path d="M666 222 702 232 722 258 704 286 665 282 644 252Z"/>
  </g>
  <g fill="none" stroke="#53615c" stroke-opacity="0.08" stroke-width="1.4">
    <path d="M40 180H960"/>
    <path d="M500 34V326"/>
    <path d="M95 92c224 35 594 35 810 0"/>
    <path d="M95 268c224-35 594-35 810 0"/>
  </g>
</svg>
